{"title":"Damares - Preciosidade [BDRip-AC3 5.1]","uid":8842774,"size":234052187,"categoryP":"video","categoryS":"music_videos","magnet":"?xt=urn:btih:e5ece791896a0302e9c6995b829217d49fa16596&amp;dn=Damares+-+Preciosidade+%5BBDRip-AC3+5.1%5D&amp;tr=udp%3A%2F%2Ftracker.openbittorrent.com%3A80&amp;tr=udp%3A%2F%2Fopen.demonii.com%3A1337&amp;tr=udp%3A%2F%2Ftracker.coppersurfer.tk%3A6969&amp;tr=udp%3A%2F%2Fexodus.desync.com%3A6969","seeders":1,"leechers":0,"uploader":"teckweb","files":-1,"time":1377290212,"description":"Format                         : Matroska\nFormat version                 : Version 2\nFile size                      : 223 MiB\nDuration                       : 5mn 18s\nOverall bit rate               : 5 881 Kbps\nWriting application            : Lavf54.59.106\nWriting library                : Lavf54.59.106\n\nVideo\nID                             : 1\nFormat                         : AVC\nFormat/Info                    : Advanced Video Codec\nFormat profile                 : &lt;a class=&quot;__cf_email__&quot; href=&quot;/cdn-cgi/l/email-protection&quot; data-cfemail=&quot;c58daca2ad8589f1ebf5&quot;&gt;[email&amp;#160;protected]&lt;/a&gt;&lt;script cf-hash='f9e31' type=&quot;text/javascript&quot;&gt;\n/* &lt;![CDATA[ */!function(){try{var t=&quot;currentScript&quot;in document?document.currentScript:function(){for(var t=document.getElementsByTagName(&quot;script&quot;),e=t.length;e--;)if(t[e].getAttribute(&quot;cf-hash&quot;))return t[e]}();if(t&amp;&amp;t.previousSibling){var e,r,n,i,c=t.previousSibling,a=c.getAttribute(&quot;data-cfemail&quot;);if(a){for(e=&quot;&quot;,r=parseInt(a.substr(0,2),16),n=2;a.length-n;n+=2)i=parseInt(a.substr(n,2),16)^r,e+=String.fromCharCode(i);e=document.createTextNode(e),c.parentNode.replaceChild(e,c)}}}catch(u){}}();/* ]]&gt; */&lt;/script&gt;\nFormat settings, CABAC         : Yes\nFormat settings, ReFrames      : 1 frame\nCodec ID                       : V_MPEG4/ISO/AVC\nDuration                       : 5mn 18s\nBit rate                       : 5 316 Kbps\nWidth                          : 1 920 pixels\nHeight                         : 1 080 pixels\nDisplay aspect ratio           : 16:9\nFrame rate mode                : Constant\nFrame rate                     : 29.970 fps\nColor space                    : YUV\nChroma subsampling             : 4:2:0\nBit depth                      : 8 bits\nScan type                      : Progressive\nBits/(Pixel*Frame)             : 0.086\nStream size                    : 202 MiB (90%)\nDefault                        : Yes\nForced                         : No\n\nAudio\nID                             : 2\nFormat                         : AC-3\nFormat/Info                    : Audio Coding 3\nMode extension                 : CM (complete main)\nFormat settings, Endianness    : Big\nCodec ID                       : A_AC3\nDuration                       : 5mn 18s\nBit rate mode                  : Constant\nBit rate                       : 448 Kbps\nChannel(s)                     : 6 channels\nChannel positions              : Front: L C R, Side: L R, LFE\nSampling rate                  : 48.0 KHz\nBit depth                      : 16 bits\nCompression mode               : Lossy\nDelay relative to video        : 24ms\nStream size                    : 17.0 MiB (8%)\nDefault                        : Yes\nForced                         : No\n\n\nLegenda em arquivo independente","torrent":{"xt":"urn:btih:e5ece791896a0302e9c6995b829217d49fa16596","amp;dn":"Damares+-+Preciosidade+%5BBDRip-AC3+5.1%5D","amp;tr":["udp%3A%2F%2Ftracker.openbittorrent.com%3A80","udp%3A%2F%2Fopen.demonii.com%3A1337","udp%3A%2F%2Ftracker.coppersurfer.tk%3A6969","udp%3A%2F%2Fexodus.desync.com%3A6969"],"infoHash":"e5ece791896a0302e9c6995b829217d49fa16596","infoHashBuffer":{"type":"Buffer","data":[229,236,231,145,137,106,3,2,233,198,153,91,130,146,23,212,159,161,101,150]},"announce":[],"urlList":[]}}